<svg width="57" height="16" viewBox="0 0 57 16" fill="none" xmlns="http://www.w3.org/2000/svg">
<path d="M41.9928 14.7963C41.9419 14.7796 41.9044 14.7522 41.8644 14.7477C41.3229 14.6868 40.8215 14.5051 40.3378 14.2609C39.7074 13.9428 39.1773 13.5016 38.7382 12.9543C38.3134 12.4248 38.0023 11.832 37.8154 11.1759C37.6888 10.7318 37.6071 10.2803 37.6061 9.81894C37.6019 8.04786 37.6043 6.27675 37.6045 4.50565C37.6046 4.28799 37.6182 4.27403 37.8309 4.27388C38.5255 4.27339 39.2202 4.27332 39.9148 4.27398C40.1139 4.27417 40.1306 4.29076 40.1307 4.48978C40.1311 6.25219 40.1095 8.01498 40.1399 9.77687C40.1557 10.692 40.5479 11.4465 41.3645 11.9259C42.0033 12.3008 42.6834 12.356 43.3814 12.1169C44.1039 11.8694 44.5788 11.3638 44.8555 10.6601C44.9809 10.341 45.0304 10.0111 45.0299 9.66909C45.0272 7.97614 45.0287 6.28317 45.0287 4.59021C45.0287 4.53812 45.0309 4.48598 45.0292 4.43395C45.0256 4.32652 45.0726 4.27375 45.1838 4.27395C45.9305 4.27526 46.6773 4.27515 47.424 4.27458C47.5342 4.2745 47.5817 4.32945 47.5798 4.43592C47.5787 4.49233 47.5806 4.54878 47.5806 4.6052C47.5807 6.86249 47.5806 9.11977 47.5807 11.377C47.5807 11.8453 47.7273 12.0552 48.1666 12.2177C48.3026 12.2679 48.3639 12.3646 48.3644 12.5481C48.3661 13.1081 48.3666 13.6681 48.3632 14.228C48.3627 14.2998 48.3403 14.3724 48.3212 14.4428C48.2951 14.5392 48.2242 14.5912 48.1275 14.5836C47.9728 14.5715 47.8167 14.5573 47.6652 14.5252C47.0062 14.3857 46.3915 14.1308 45.8141 13.7866C45.7308 13.7369 45.6705 13.7438 45.6035 13.7981C45.2771 14.0622 44.9116 14.2617 44.5274 14.4236C44.1557 14.5802 43.7715 14.7024 43.3664 14.7447C43.3164 14.7499 43.268 14.7698 43.2119 14.7896C42.805 14.7963 42.405 14.7963 41.9928 14.7963Z" fill="white"/>
<path d="M54.2127 14.7958C54.162 14.7784 54.1251 14.7519 54.0848 14.7449C53.5348 14.6498 53.0376 14.4304 52.6006 14.0874C51.9577 13.5829 51.5283 12.9322 51.3573 12.1299C51.3002 11.8618 51.2873 11.5804 51.2859 11.3049C51.2791 9.92013 51.2829 8.53536 51.2827 7.15061C51.2826 6.91036 51.2752 6.90313 51.0328 6.90289C50.603 6.90248 50.1732 6.90356 49.7434 6.90207C49.5644 6.90145 49.5385 6.87592 49.5381 6.69823C49.5369 6.0688 49.537 5.43936 49.538 4.80993C49.5383 4.63181 49.5593 4.61236 49.7452 4.61194C50.188 4.61092 50.6309 4.61208 51.0737 4.61108C51.2636 4.61065 51.2823 4.59213 51.2824 4.40144C51.283 3.34225 51.2827 2.28306 51.2828 1.21167C52.1256 1.19946 52.9685 1.19946 53.8235 1.21167C53.8357 2.28294 53.8354 3.34201 53.836 4.40108C53.8362 4.59205 53.8549 4.61072 54.0444 4.61107C54.548 4.61201 55.0515 4.6115 55.5551 4.61156C55.5551 5.36745 55.5551 6.12335 55.5429 6.89156C55.0362 6.90356 54.5417 6.90262 54.0472 6.90322C53.856 6.90345 53.8362 6.92263 53.8361 7.11064C53.8354 8.55488 53.8346 9.99911 53.8374 11.4433C53.8376 11.5459 53.8461 11.6561 53.8835 11.7497C54.1057 12.3058 54.6349 12.6533 55.2501 12.5355C55.3485 12.5166 55.4533 12.5308 55.5551 12.5297C55.5551 13.2827 55.5551 14.0356 55.5551 14.7958C55.1117 14.7958 54.6683 14.7958 54.2127 14.7958Z" fill="white"/>
<path d="M23.9816 10.2372C23.9816 11.5306 23.9817 12.811 23.9814 14.0914C23.9814 14.315 23.9701 14.3261 23.7453 14.3262C23.0551 14.3266 22.3649 14.3268 21.6747 14.326C21.4499 14.3257 21.4298 14.3051 21.4298 14.0793C21.4295 12.2955 21.4265 10.5116 21.4312 8.72772C21.4331 7.9781 21.1269 7.38368 20.5636 6.90637C20.2214 6.61648 19.8351 6.44341 19.3871 6.37281C18.5461 6.24029 17.8579 6.50583 17.2706 7.0988C16.8852 7.48803 16.7007 7.97104 16.5907 8.4917C16.5766 8.55852 16.5834 8.63009 16.5834 8.69946C16.583 10.4703 16.5831 12.2412 16.583 14.012C16.583 14.0684 16.5817 14.1248 16.5812 14.1813C16.5803 14.2778 16.5303 14.3241 16.4351 14.3247C16.3483 14.3252 16.2615 14.3263 16.1747 14.3263C15.5496 14.3265 14.9245 14.3266 14.2994 14.3263C14.0659 14.3261 14.0565 14.317 14.0565 14.0851C14.0563 11.8238 14.0587 9.56247 14.0516 7.30118C14.0511 7.12888 14.003 6.94976 13.9429 6.78633C13.865 6.57431 13.6909 6.4458 13.4714 6.395C13.332 6.36275 13.2753 6.28319 13.2755 6.14716C13.2763 5.50914 13.2745 4.87111 13.2769 4.23309C13.2775 4.08539 13.3464 4.0065 13.4939 4.018C13.7044 4.03441 13.9162 4.06443 14.1213 4.11388C14.7111 4.25607 15.2682 4.48231 15.7824 4.80733C15.8754 4.86612 15.9425 4.82393 16.0195 4.7778C16.32 4.59767 16.6119 4.39827 16.9276 4.24973C17.2271 4.10879 17.5461 3.99656 17.8679 3.9186C18.2876 3.81692 18.7172 3.75524 19.1543 3.77672C19.721 3.80459 20.2696 3.91609 20.7997 4.11691C21.5888 4.41584 22.2466 4.90712 22.7862 5.54499C23.2312 6.071 23.5535 6.67116 23.7584 7.33709C23.9289 7.89098 23.9972 8.45052 23.9835 9.02636C23.9739 9.42543 23.9816 9.82491 23.9816 10.2372Z" fill="white"/>
<path d="M10.9036 9.1973C10.9036 11.5706 8.97927 13.4949 6.60507 13.4949C4.23088 13.4949 2.30658 11.5706 2.30658 9.1973C2.30658 6.82401 4.23088 4.89972 6.60507 4.89972C8.97927 4.89972 10.9036 6.82401 10.9036 9.1973Z" stroke="white" stroke-width="2.60487"/>
<path d="M35.077 9.1973C35.077 11.5706 33.1527 13.4949 30.7785 13.4949C28.4043 13.4949 26.48 11.5706 26.48 9.1973C26.48 6.82401 28.4043 4.89972 30.7785 4.89972C33.1527 4.89972 35.077 6.82401 35.077 9.1973Z" stroke="white" stroke-width="2.60487"/>
</svg>
