<svg width="213" height="47" viewBox="0 0 213 47" fill="none" xmlns="http://www.w3.org/2000/svg">
<g clip-path="url(#clip0_203_103)">
<path d="M211.165 46.0994C210.924 46.0994 210.685 46.0519 210.463 45.9595C210.24 45.8672 210.038 45.7319 209.867 45.5614C209.697 45.3908 209.562 45.1883 209.47 44.9655C209.378 44.7427 209.33 44.5038 209.331 44.2627V19.6765C209.326 15.4326 207.638 11.3637 204.637 8.36278C201.636 5.36184 197.567 3.67392 193.323 3.66941H19.6785C15.4347 3.67442 11.3661 5.36253 8.36525 8.36336C5.36442 11.3642 3.67637 15.4327 3.67136 19.6765V44.2647C3.67136 44.7515 3.47795 45.2184 3.13369 45.5627C2.78943 45.907 2.32256 46.1004 1.83571 46.1004C1.34886 46.1004 0.881929 45.907 0.537671 45.5627C0.193413 45.2184 0 44.7515 0 44.2647V19.6765C0.00351092 14.4585 2.07789 9.45527 5.76756 5.7656C9.45722 2.07594 14.4605 0.00155779 19.6785 -0.00195312H193.323C198.541 0.00205927 203.544 2.07668 207.233 5.7663C210.922 9.45591 212.996 14.4589 213 19.6765V44.2647C213 44.7513 212.807 45.2179 212.463 45.562C212.119 45.9061 211.652 46.0994 211.165 46.0994V46.0994Z" fill="white"/>
<path d="M31.8166 39.8919C27.8157 39.8919 23.813 39.9128 19.8122 39.8919C18.0513 39.8787 17.3734 39.2595 17.3015 37.775C17.2457 37.4887 17.2569 37.1934 17.3342 36.9121C17.4114 36.6308 17.5526 36.3712 17.7467 36.1535C17.9408 35.9357 18.1825 35.7658 18.4531 35.6569C18.7237 35.548 19.0158 35.5031 19.3066 35.5257C22.0805 35.4556 24.8563 35.4783 27.6377 35.467C29.2036 35.467 29.2112 35.467 29.2036 33.9011C29.3594 32.9845 29.3129 32.0448 29.0673 31.148C28.6432 30.3679 27.384 30.6141 26.5055 30.349C25.4576 30.1057 24.4733 29.6429 23.6176 28.991C22.7619 28.3391 22.0543 27.513 21.5416 26.5673C21.0288 25.6217 20.7227 24.578 20.6432 23.5052C20.5638 22.4324 20.7129 21.355 21.0808 20.3441C21.386 19.2996 21.9449 18.3469 22.7078 17.5708C23.4706 16.7948 24.4136 16.2195 25.4527 15.8964C27.6496 15.022 30.0045 14.6144 32.3675 14.6995C34.7304 14.7846 37.0499 15.3605 39.1782 16.3906C40.3888 16.9717 41.396 17.9043 42.0685 19.0665C42.741 20.2288 43.0476 21.5668 42.948 22.9059C43.0103 24.2789 42.6709 25.6402 41.9714 26.8233C41.2719 28.0063 40.2427 28.9599 39.0097 29.567C37.8349 30.2034 36.5498 30.6108 35.2229 30.7675C34.6207 30.8375 34.4295 31.0799 34.4522 31.6611C34.5024 32.6299 34.5024 33.6007 34.4522 34.5695C34.403 35.3079 34.6927 35.4802 35.3762 35.4764C38.3678 35.4632 41.3594 35.4575 44.3492 35.5238C44.6216 35.5053 44.8949 35.5459 45.1501 35.643C45.4053 35.74 45.6365 35.8911 45.8279 36.0859C46.0193 36.2807 46.1663 36.5146 46.2588 36.7715C46.3513 37.0284 46.3871 37.3023 46.3638 37.5744C46.416 37.8612 46.4025 38.156 46.3244 38.4369C46.2463 38.7177 46.1056 38.9772 45.9128 39.1959C45.7201 39.4145 45.4802 39.5867 45.2114 39.6993C44.9425 39.812 44.6516 39.8623 44.3606 39.8465C42.0203 39.9184 39.6762 39.8957 37.334 39.9033C35.4955 39.9033 33.657 39.9033 31.8185 39.9033L31.8166 39.8919ZM31.8809 19.1285C30.4661 19.0866 29.0623 19.39 27.7911 20.0127C27.2297 20.2639 26.7542 20.6742 26.4234 21.1928C26.0926 21.7113 25.921 22.3155 25.9299 22.9305C25.9214 23.5479 26.1002 24.1532 26.4426 24.667C26.7849 25.1807 27.2749 25.5787 27.8479 25.8085C29.0823 26.4017 30.4338 26.7112 31.8033 26.7141C33.1728 26.7171 34.5255 26.4134 35.7624 25.8256C36.3557 25.5983 36.8634 25.1919 37.2153 24.663C37.5671 24.134 37.7456 23.5087 37.726 22.8737C37.7223 22.2586 37.539 21.658 37.1986 21.1457C36.8582 20.6334 36.3755 20.2317 35.8098 19.99C34.5859 19.3984 33.2401 19.1026 31.8809 19.1266V19.1285Z" fill="white"/>
<path d="M97.1193 28.586C97.1193 24.4924 97.1193 20.3988 97.1193 16.3052C97.0708 15.8724 97.1346 15.4343 97.3046 15.0333C97.4745 14.6322 97.7448 14.2816 98.0895 14.0153C98.4342 13.749 98.8416 13.5759 99.2726 13.5127C99.7036 13.4495 100.144 13.4983 100.55 13.6544C100.83 13.6874 101.101 13.7762 101.346 13.9156C101.592 14.055 101.806 14.2421 101.978 14.4659C102.15 14.6897 102.275 14.9457 102.346 15.2187C102.417 15.4917 102.433 15.7762 102.392 16.0553C102.434 17.9488 102.463 19.863 102.392 21.7621C102.353 22.7448 102.695 23.0459 103.621 22.9417C104.089 22.9078 104.558 22.923 105.022 22.9871C105.303 22.9872 105.58 23.0459 105.837 23.1593C106.094 23.2728 106.324 23.4385 106.513 23.6459C106.702 23.8534 106.845 24.0979 106.934 24.364C107.023 24.6301 107.056 24.9118 107.03 25.1911C107.054 25.4611 107.023 25.7332 106.938 25.9906C106.853 26.2481 106.716 26.4853 106.535 26.6874C106.355 26.8895 106.134 27.0523 105.888 27.1655C105.642 27.2788 105.375 27.3402 105.104 27.3458C104.533 27.4266 103.956 27.4519 103.381 27.4216C102.623 27.3667 102.392 27.645 102.4 28.3967C102.432 32.1666 102.415 35.9364 102.413 39.7081C102.413 40.2099 102.432 40.7154 102.4 41.2228C102.404 41.5662 102.334 41.9062 102.195 42.2203C102.056 42.5343 101.851 42.815 101.595 43.0435C101.339 43.272 101.037 43.443 100.709 43.545C100.381 43.647 100.035 43.6777 99.6944 43.635C99.3492 43.6715 99.0003 43.6307 98.6729 43.5157C98.3454 43.4006 98.0477 43.2142 97.8012 42.9698C97.5547 42.7255 97.3657 42.4295 97.2477 42.1031C97.1298 41.7767 97.0859 41.4281 97.1193 41.0827C97.1022 37.4549 97.1193 33.829 97.1193 30.203V28.586Z" fill="white"/>
<path d="M83.6808 23.736C83.6808 25.709 83.7149 27.6819 83.6657 29.6549C83.6449 30.4861 83.8929 30.8307 84.7639 30.7758C87.3542 30.7176 89.9397 30.5242 92.5099 30.1964C94.5927 29.8423 95.7041 30.8345 95.4334 32.7279C95.3761 33.2371 95.1332 33.7072 94.751 34.0485C94.3689 34.3898 93.8743 34.5782 93.362 34.5778C91.1504 34.858 88.9313 35.1099 86.7084 35.25C84.9513 35.3598 83.181 35.3182 81.4163 35.2765C81.0279 35.321 80.6344 35.279 80.2641 35.1535C79.8938 35.028 79.5558 34.8221 79.2744 34.5507C78.993 34.2792 78.7751 33.949 78.6364 33.5834C78.4977 33.2179 78.4415 32.8262 78.472 32.4364C78.4101 27.4516 78.4044 22.4655 78.4549 17.4782C78.472 15.7457 79.4263 14.9732 81.1569 15.0167C81.5011 14.9902 81.847 15.0398 82.1698 15.1622C82.4926 15.2845 82.7845 15.4766 83.0246 15.7247C83.2648 15.9728 83.4472 16.2707 83.559 16.5974C83.6708 16.924 83.7091 17.2714 83.6714 17.6145C83.7092 19.6443 83.6789 21.6911 83.6808 23.736Z" fill="white"/>
<path d="M150.551 31.7232C146.764 31.7232 142.98 31.7232 139.2 31.7232C138.732 31.7274 138.264 31.7059 137.798 31.6588C136.547 31.5206 136.094 31.0549 136.062 29.9018C136.022 28.6578 136.43 28.1352 137.679 27.9023C138.14 27.8242 138.607 27.7874 139.075 27.7925C141.741 27.7836 144.407 27.7836 147.073 27.7925C147.641 27.7925 148.186 27.8455 148.059 26.9896C147.968 26.3799 148.351 25.598 147.173 25.5753C145.913 25.5048 144.675 25.2199 143.511 24.7327C142.414 24.4164 141.447 23.7561 140.753 22.849C140.06 21.9419 139.676 20.836 139.658 19.6942C139.673 18.5896 140.036 17.5179 140.694 16.6306C141.352 15.7434 142.273 15.0856 143.325 14.7505C145.525 13.9304 147.864 13.5508 150.21 13.6334C152.806 13.472 155.407 13.859 157.844 14.7694C158.864 15.0813 159.763 15.702 160.415 16.5461C161.067 17.3901 161.441 18.4158 161.486 19.4816C161.53 20.5474 161.243 21.6008 160.663 22.4962C160.083 23.3917 159.24 24.0851 158.249 24.4809C156.967 25.0516 155.604 25.422 154.209 25.579C153.994 25.6129 153.79 25.6972 153.613 25.8249C153.437 25.9527 153.293 26.1203 153.194 26.3141C153.095 26.5079 153.043 26.7224 153.042 26.9402C153.041 27.1579 153.092 27.3728 153.19 27.5672C153.402 27.9326 153.758 27.7849 154.063 27.7868C156.903 27.8 159.757 27.7868 162.603 27.8C164.36 27.8133 165.085 28.4059 165.128 29.773C165.168 30.0059 165.156 30.2447 165.093 30.4724C165.03 30.7001 164.917 30.9111 164.763 31.0902C164.609 31.2693 164.417 31.4121 164.201 31.5085C163.986 31.6048 163.751 31.6523 163.515 31.6475C162.978 31.7071 162.438 31.7343 161.898 31.7289C158.116 31.7289 154.334 31.727 150.551 31.7232ZM150.655 21.8509C152.096 21.883 153.533 21.6914 154.915 21.2829C155.625 20.9818 156.316 20.6391 156.326 19.7132C156.319 19.3286 156.175 18.959 155.92 18.6707C155.666 18.3823 155.317 18.1941 154.936 18.1397C152.121 17.3285 149.135 17.3193 146.315 18.1132C145.546 18.3234 144.8 18.7911 144.836 19.7435C144.863 20.6258 145.575 20.9951 146.294 21.2923C147.71 21.7059 149.181 21.895 150.655 21.8528V21.8509Z" fill="white"/>
<path d="M160.256 43.6591C157.038 43.3393 153.965 42.1624 151.357 40.251C151.259 40.144 151.139 40.059 151.005 40.0014C150.872 39.9438 150.728 39.915 150.583 39.9167C150.438 39.9185 150.294 39.9509 150.163 40.0117C150.031 40.0726 149.913 40.1606 149.817 40.2699C147.223 42.1755 144.159 43.3416 140.954 43.644C140.69 43.7117 140.415 43.7241 140.146 43.6803C139.878 43.6365 139.621 43.5376 139.392 43.3896C139.163 43.2416 138.967 43.0478 138.817 42.8205C138.667 42.5931 138.566 42.3371 138.519 42.0686C138.457 41.7946 138.452 41.5105 138.506 41.2347C138.561 40.9589 138.673 40.6976 138.835 40.4679C138.997 40.2382 139.205 40.0452 139.447 39.9014C139.688 39.7577 139.958 39.6665 140.237 39.6337C141.851 39.2775 143.428 38.7703 144.948 38.1189C146.652 37.2745 148.199 36.3259 148.072 34.067C148.086 33.7791 148.201 33.5051 148.395 33.2926C148.826 32.878 149.364 32.5926 149.949 32.4687C150.534 32.3449 151.142 32.3876 151.703 32.592C152.158 32.6663 152.567 32.9125 152.845 33.2797C153.124 33.6469 153.25 34.1071 153.199 34.565C153.201 35.1611 153.37 35.7448 153.687 36.2494C154.004 36.7539 154.457 37.159 154.994 37.4184C156.468 38.3242 158.086 38.9692 159.779 39.325C160.197 39.4292 160.619 39.5258 161.032 39.6489C162.288 40.0275 162.886 40.8265 162.736 41.9039C162.556 43.1043 161.809 43.6762 160.256 43.6591Z" fill="white"/>
<path d="M61.2587 43.6582C58.7101 43.5617 55.5784 43.8362 52.4448 43.5332C51.0323 43.3969 50.5513 42.8535 50.4983 41.4504C50.4547 40.125 50.4567 38.7996 50.487 37.4742C50.5248 35.8364 51.125 35.2135 52.7912 35.134C54.0504 35.0734 55.3133 35.1112 56.5781 35.1093C59.7856 35.1093 62.9931 35.1093 66.2005 35.1093C66.619 35.1093 67.1984 35.3157 67.1795 34.5129C67.1606 33.7101 66.5811 33.9335 66.1684 33.9316C61.9877 33.9184 57.8089 33.9316 53.6282 33.9184C53.052 33.9201 52.4764 33.8834 51.9051 33.8086C51.7062 33.8019 51.5107 33.7553 51.3301 33.6714C51.1496 33.5876 50.9878 33.4682 50.8544 33.3205C50.721 33.1728 50.6187 32.9997 50.5537 32.8116C50.4886 32.6235 50.462 32.4243 50.4756 32.2257C50.4421 32.0294 50.4497 31.8283 50.4977 31.6351C50.5458 31.4419 50.6333 31.2607 50.7547 31.103C50.8762 30.9452 51.029 30.8143 51.2035 30.7185C51.3781 30.6226 51.5705 30.564 51.7688 30.5462C52.2628 30.4523 52.7638 30.401 53.2665 30.3928C58.4192 30.3814 63.5725 30.3814 68.7264 30.3928C68.9423 30.3928 69.1581 30.3928 69.374 30.3928C71.47 30.5064 72.0588 31.0858 72.0929 33.1648C72.1381 34.3476 72.1084 35.5321 72.0039 36.7112C71.8543 38.0555 71.309 38.5289 69.9401 38.563C67.6358 38.6236 65.3296 38.6046 63.0215 38.6122C60.8952 38.6122 58.7688 38.597 56.6444 38.6254C56.1426 38.6254 55.3985 38.3263 55.3758 39.3052C55.3531 40.2841 56.0821 40.0247 56.599 40.0285C61.2833 40.0436 65.9677 40.0285 70.652 40.0474C72.1251 40.0474 72.7765 40.6609 72.7348 41.9125C72.7514 42.1109 72.7287 42.3107 72.668 42.5004C72.6073 42.69 72.5098 42.8659 72.3811 43.0178C72.2523 43.1698 72.0949 43.2949 71.9178 43.3859C71.7406 43.4769 71.5473 43.5321 71.3488 43.5484C70.1315 43.6861 68.905 43.7266 67.6812 43.6695C65.7348 43.6752 63.7883 43.6582 61.2587 43.6582Z" fill="white"/>
<path d="M61.6949 23.5663C59.1729 23.5663 56.6489 23.5871 54.1212 23.5663C51.3322 23.5379 50.6146 22.8203 50.6051 20.0218C50.5282 18.5518 50.5554 17.0781 50.6865 15.612C50.8759 14.2752 51.6787 13.6882 53.2142 13.7318C53.4925 13.6982 53.7747 13.7231 54.0428 13.8046C54.311 13.8862 54.5592 14.0227 54.7717 14.2054C54.9842 14.3882 55.1563 14.6132 55.2771 14.8661C55.3978 15.119 55.4646 15.3943 55.4731 15.6744C55.5205 16.1364 55.528 16.606 55.528 17.0718C55.528 19.7605 55.5281 19.7605 58.2811 19.7605C61.9569 19.7605 65.6326 19.7605 69.3084 19.7605C69.7767 19.7505 70.2451 19.7675 70.7115 19.8116C70.9468 19.8119 71.1795 19.8623 71.3939 19.9593C71.6084 20.0562 71.7998 20.1977 71.9555 20.3742C72.1112 20.5506 72.2277 20.7581 72.2972 20.983C72.3668 21.2079 72.3877 21.445 72.3588 21.6785C72.387 21.9034 72.3666 22.1316 72.299 22.3479C72.2315 22.5642 72.1184 22.7635 71.9673 22.9324C71.8162 23.1012 71.6307 23.2357 71.4232 23.3268C71.2157 23.4179 70.9911 23.4633 70.7645 23.4602C70.2291 23.5314 69.6895 23.5662 69.1494 23.5644C66.6671 23.5663 64.181 23.5663 61.6949 23.5663Z" fill="white"/>
<path d="M61.321 28.7863C57.3959 28.7863 53.4708 28.7863 49.5438 28.7863C49.0051 28.7829 48.468 28.7271 47.9401 28.6197C47.5629 28.552 47.2267 28.3408 47.0018 28.0305C46.777 27.7202 46.681 27.3349 46.734 26.9554C46.6959 26.5918 46.7996 26.2275 47.0237 25.9385C47.2477 25.6496 47.5746 25.4583 47.9363 25.4047C48.4639 25.2956 49.0012 25.2398 49.5401 25.238C57.3549 25.2279 65.1697 25.2279 72.9845 25.238C73.524 25.2379 74.062 25.2931 74.5901 25.4028C74.9667 25.474 75.3016 25.6868 75.5259 25.9975C75.7503 26.3081 75.8471 26.693 75.7963 27.0728C75.8339 27.4361 75.7299 27.8 75.5059 28.0885C75.2819 28.377 74.9553 28.568 74.594 28.6216C74.0662 28.7301 73.5289 28.7853 72.9902 28.7863C69.0992 28.792 65.2101 28.7863 61.321 28.7863Z" fill="white"/>
<path d="M180.592 30.7701C182.971 30.6729 185.341 31.111 187.528 32.052C188.608 32.4706 189.531 33.217 190.165 34.1865C190.8 35.156 191.115 36.2999 191.066 37.4577C191.072 38.637 190.705 39.788 190.019 40.7472C189.332 41.7064 188.361 42.425 187.244 42.801C184.299 43.9022 181.126 44.2479 178.013 43.8064C176.505 43.6919 175.03 43.3071 173.658 42.6703C172.58 42.2209 171.663 41.4554 171.027 40.4747C170.392 39.494 170.069 38.344 170.1 37.176C170.131 36.008 170.514 34.8767 171.201 33.931C171.887 32.9853 172.843 32.2695 173.944 31.8777C176.056 31.041 178.322 30.6634 180.592 30.7701V30.7701ZM180.565 39.8453C181.717 39.9153 182.871 39.7597 183.962 39.3871C184.909 39.0217 185.717 38.4839 185.704 37.3214C185.69 36.8457 185.513 36.3894 185.203 36.0284C184.893 35.6673 184.468 35.4233 184 35.337C181.761 34.6115 179.351 34.6115 177.112 35.337C176.645 35.4281 176.222 35.6745 175.913 36.0362C175.603 36.3978 175.425 36.8534 175.408 37.3289C175.408 38.465 176.184 39.033 177.155 39.3966C178.249 39.7747 179.409 39.9279 180.564 39.8472L180.565 39.8453Z" fill="white"/>
<path d="M175.045 14.2077C176.99 14.2077 178.934 14.1812 180.879 14.2077C182.393 14.2342 183.164 14.7758 183.318 15.8134C183.552 17.4152 182.99 18.2218 181.379 18.3998C180.411 18.4943 179.437 18.5094 178.467 18.4452C177.734 18.4054 177.607 18.7159 177.709 19.3313C177.843 20.0943 178.13 20.8222 178.553 21.4711C178.976 22.12 179.526 22.6765 180.171 23.1069C180.975 23.7014 181.875 24.1785 182.731 24.6992C184.039 25.4907 184.435 26.4033 183.971 27.5261C183.858 27.8027 183.689 28.0534 183.476 28.2629C183.263 28.4724 183.01 28.6363 182.731 28.7447C182.453 28.8531 182.155 28.9038 181.857 28.8935C181.558 28.8832 181.265 28.8122 180.994 28.6849C179.027 28.0794 177.236 27.0054 175.776 25.5551C175.244 25.0287 174.977 24.987 174.466 25.5892C173.132 27.2018 171.455 28.4957 169.556 29.376C169.091 29.6638 168.539 29.7795 167.998 29.7031C167.456 29.6266 166.958 29.3629 166.591 28.9576C166.388 28.7385 166.234 28.4787 166.138 28.1956C166.043 27.9125 166.009 27.6124 166.039 27.3152C166.068 27.0179 166.16 26.7303 166.309 26.4713C166.457 26.2122 166.659 25.9877 166.901 25.8125C167.888 24.9756 168.956 24.2372 169.931 23.3909C171.149 22.4212 172.022 21.0846 172.421 19.5794C172.61 18.805 172.55 18.3448 171.552 18.4433C170.725 18.4996 169.896 18.4996 169.069 18.4433C167.335 18.3695 166.634 17.7182 166.644 16.2451C166.644 14.8818 167.382 14.2361 169.105 14.202C171.082 14.1774 173.065 14.2077 175.045 14.2077Z" fill="white"/>
<path d="M185.906 21.8327C185.906 19.8578 185.889 17.883 185.906 15.9081C185.973 15.2638 186.277 14.6673 186.758 14.2336C187.24 13.8 187.864 13.5601 188.512 13.5601C189.16 13.5601 189.785 13.8 190.266 14.2336C190.748 14.6673 191.051 15.2638 191.119 15.9081C191.139 16.8416 191.147 17.7751 191.119 18.7085C191.102 19.2652 191.308 19.4772 191.876 19.4659C192.56 19.4539 193.243 19.4868 193.923 19.5644C194.177 19.5678 194.427 19.6247 194.657 19.7312C194.887 19.8377 195.093 19.9915 195.26 20.1826C195.427 20.3737 195.552 20.5978 195.626 20.8403C195.701 21.0829 195.724 21.3384 195.693 21.5903C195.732 21.8406 195.719 22.0961 195.655 22.3412C195.591 22.5862 195.477 22.8155 195.321 23.0149C195.165 23.2142 194.97 23.3794 194.747 23.5001C194.524 23.6208 194.279 23.6945 194.027 23.7166C193.318 23.8479 192.595 23.8867 191.876 23.8321C191.321 23.817 191.105 24.0063 191.119 24.5744C191.151 25.6498 191.145 26.7291 191.119 27.8046C191.083 29.3193 190.145 30.1373 188.491 30.1297C186.836 30.1221 185.927 29.3004 185.908 27.7591C185.889 25.7824 185.906 23.8075 185.906 21.8327Z" fill="white"/>
<path d="M116.61 29.5318C115.206 29.6487 113.796 29.4 112.516 28.81C111.237 28.2201 110.132 27.309 109.309 26.1653C108.627 25.1579 108.204 23.9979 108.077 22.788C107.95 21.5781 108.123 20.3555 108.581 19.2285C109.039 18.1015 109.768 17.1048 110.703 16.3265C111.638 15.5483 112.751 15.0126 113.942 14.7668C115.466 14.3126 117.078 14.2429 118.636 14.5641C120.193 14.8853 121.646 15.5872 122.866 16.6073C123.796 17.5056 124.477 18.6307 124.84 19.8718C125.204 21.1129 125.238 22.4272 124.939 23.6855C124.64 24.9438 124.019 26.1027 123.137 27.0481C122.255 27.9935 121.141 28.6929 119.906 29.0774C118.836 29.3917 117.725 29.5448 116.61 29.5318V29.5318ZM116.648 25.2091C117.08 25.2336 117.512 25.1669 117.916 25.0134C118.32 24.8599 118.688 24.623 118.995 24.3182C119.302 24.0133 119.541 23.6473 119.697 23.244C119.853 22.8406 119.922 22.409 119.901 21.977C119.872 21.1164 119.508 20.3012 118.885 19.7063C118.263 19.1114 117.432 18.7842 116.571 18.7948C115.71 18.8055 114.887 19.1532 114.28 19.7633C113.672 20.3734 113.328 21.1974 113.321 22.0584C113.308 22.4908 113.387 22.921 113.552 23.3208C113.717 23.7207 113.965 24.0811 114.279 24.3786C114.593 24.676 114.967 24.9037 115.375 25.0469C115.783 25.19 116.217 25.2453 116.648 25.2091V25.2091Z" fill="white"/>
<path d="M133.031 28.6119C133.031 32.7074 133.031 36.801 133.031 40.8946C133.031 43.0133 131.81 43.9638 129.727 43.5037C129.278 43.4378 128.866 43.2171 128.562 42.8796C128.259 42.5422 128.082 42.1092 128.064 41.6557C128.04 41.4413 128.027 41.2258 128.025 41.01C128.025 32.7142 128.025 24.4179 128.025 16.1208C127.981 15.7051 128.048 15.2853 128.217 14.9031C128.386 14.521 128.653 14.1898 128.99 13.9424C129.326 13.6951 129.722 13.5402 130.138 13.4932C130.553 13.4462 130.973 13.5087 131.357 13.6745C132.538 13.9983 133.019 14.6989 133.023 16.2193C133.036 20.3508 133.031 24.4804 133.031 28.6119Z" fill="white"/>
<path d="M115.109 33.5616C118.204 33.5333 121.296 33.3436 124.371 32.9935C124.626 32.9315 124.891 32.9213 125.15 32.9635C125.409 33.0057 125.657 33.0994 125.879 33.239C126.101 33.3786 126.293 33.5614 126.443 33.7765C126.593 33.9916 126.699 34.2346 126.753 34.4912C126.848 34.7738 126.883 35.0734 126.854 35.3702C126.826 35.6671 126.735 35.9546 126.588 36.2139C126.44 36.4732 126.24 36.6986 126 36.8752C125.759 37.0517 125.485 37.1756 125.193 37.2386C123.581 37.6279 121.928 37.8224 120.27 37.818C116.457 37.9088 112.64 37.8975 108.824 37.8729C108.452 37.9022 108.079 37.8337 107.741 37.6743C107.403 37.5148 107.113 37.2699 106.899 36.9638C106.685 36.6577 106.555 36.301 106.521 35.929C106.488 35.5571 106.552 35.1829 106.707 34.8434C106.826 34.4606 107.067 34.1276 107.394 33.8961C107.721 33.6646 108.115 33.5476 108.516 33.5634C110.718 33.5558 112.914 33.5616 115.109 33.5616Z" fill="white"/>
</g>
<defs>
<clipPath id="clip0_203_103">
<rect width="213" height="46.1013" fill="white"/>
</clipPath>
</defs>
</svg>
