<svg width="164" height="56" viewBox="0 0 164 56" fill="none" xmlns="http://www.w3.org/2000/svg">
<path d="M150.637 0.78692H13.3704C12.8701 0.78692 12.3757 0.78692 11.8767 0.789641C11.459 0.792363 11.0446 0.800268 10.6228 0.806922C9.7066 0.817673 8.79252 0.898053 7.88855 1.04736C6.98584 1.19992 6.11142 1.48754 5.29484 1.9005C4.47927 2.31694 3.73405 2.85807 3.08623 3.50425C2.43501 4.14861 1.89217 4.8934 1.47858 5.70999C1.06385 6.52496 0.77627 7.39827 0.625782 8.29976C0.473862 9.20011 0.392113 10.1108 0.381268 11.0238C0.368605 11.441 0.367268 11.8595 0.360596 12.2768V43.7273C0.367268 44.1498 0.368605 44.5591 0.381268 44.9817C0.392116 45.8946 0.473866 46.8053 0.625782 47.7056C0.775855 48.6076 1.06345 49.4815 1.47858 50.2967C1.89198 51.1107 2.4349 51.8525 3.08623 52.4932C3.7316 53.1423 4.47729 53.6838 5.29484 54.097C6.11141 54.5111 6.98574 54.8004 7.88855 54.9553C8.79268 55.1035 9.70666 55.1839 10.6228 55.1959C11.0446 55.2052 11.459 55.2105 11.8767 55.2105C12.3757 55.2132 12.8701 55.2132 13.3704 55.2132H150.637C151.127 55.2132 151.626 55.2132 152.116 55.2105C152.532 55.2105 152.958 55.2052 153.374 55.1959C154.288 55.1845 155.201 55.1041 156.103 54.9553C157.009 54.7993 157.886 54.5101 158.707 54.097C159.523 53.6835 160.268 53.1421 160.913 52.4932C161.563 51.8499 162.107 51.1087 162.525 50.2967C162.937 49.4809 163.222 48.6071 163.37 47.7056C163.522 46.8052 163.607 45.8947 163.623 44.9817C163.629 44.5591 163.629 44.1498 163.629 43.7273C163.639 43.233 163.639 42.7414 163.639 42.2391V13.7623C163.639 13.264 163.639 12.7697 163.629 12.2768C163.629 11.8595 163.629 11.441 163.623 11.0237C163.607 10.1107 163.522 9.20018 163.37 8.29971C163.222 7.39873 162.937 6.52549 162.525 5.70994C161.683 4.07317 160.348 2.74086 158.707 1.90037C157.886 1.48843 157.008 1.20089 156.103 1.04724C155.201 0.897273 154.288 0.816865 153.374 0.806731C152.958 0.800091 152.532 0.792118 152.116 0.789464C151.626 0.786743 151.127 0.786743 150.637 0.786743V0.78692Z" fill="#A6A6A6"/>
<path d="M11.8833 54.0225C11.4676 54.0225 11.0619 54.0172 10.6494 54.008C9.79498 53.9969 8.94252 53.9227 8.09905 53.7861C7.31255 53.651 6.55065 53.3997 5.83846 53.0406C5.13281 52.6844 4.48921 52.2173 3.93229 51.6573C3.36732 51.1039 2.89695 50.462 2.53983 49.7572C2.17877 49.0477 1.9289 48.2872 1.79892 47.5023C1.65855 46.6588 1.5826 45.806 1.57173 44.951C1.56308 44.6641 1.55176 43.7086 1.55176 43.7086V12.2767C1.55176 12.2767 1.56382 11.3359 1.5718 11.0595C1.58221 10.206 1.65771 9.35443 1.79766 8.51228C1.92789 7.72517 2.17795 6.96252 2.5392 6.25074C2.89501 5.54634 3.36277 4.904 3.92434 4.34861C4.48528 3.78794 5.13095 3.31849 5.8378 2.95738C6.54834 2.59936 7.3088 2.34987 8.09371 2.21726C8.93996 2.07924 9.79538 2.00462 10.6528 1.99403L11.884 1.97742H152.109L153.355 1.9947C154.205 2.00477 155.052 2.07872 155.891 2.21593C156.684 2.3502 157.452 2.60144 158.171 2.96136C159.587 3.6891 160.739 4.84046 161.466 6.25406C161.822 6.96093 162.068 7.71736 162.196 8.49767C162.338 9.34672 162.417 10.205 162.433 11.0655C162.437 11.4509 162.437 11.8648 162.437 12.2767C162.448 12.7869 162.448 13.2726 162.448 13.7622V42.239C162.448 42.7333 162.448 43.2157 162.437 43.702C162.437 44.1444 162.437 44.5498 162.432 44.967C162.416 45.8122 162.338 46.6551 162.199 47.4889C162.072 48.2796 161.823 49.046 161.462 49.7612C161.102 50.4585 160.635 51.0948 160.076 51.6467C159.519 52.2097 158.874 52.6795 158.167 53.038C157.45 53.3999 156.683 53.6521 155.891 53.7861C155.047 53.9234 154.195 53.9976 153.34 54.008C152.941 54.0172 152.522 54.0225 152.116 54.0225L150.637 54.0253L11.8833 54.0225Z" fill="black"/>
<path d="M34.1571 28.4091C34.1718 27.2734 34.4743 26.1599 35.0365 25.1721C35.5987 24.1843 36.4023 23.3544 37.3726 22.7596C36.7562 21.8817 35.9431 21.1593 34.9977 20.6497C34.0524 20.14 33.0009 19.8572 31.9268 19.8237C29.6355 19.5839 27.4142 21.1909 26.2466 21.1909C25.0564 21.1909 23.2587 19.8475 21.3229 19.8872C20.0707 19.9276 18.8504 20.2907 17.7808 20.9412C16.7112 21.5916 15.8289 22.5073 15.2197 23.5989C12.5808 28.155 14.5492 34.8508 17.077 38.5336C18.3417 40.337 19.8198 42.3513 21.7539 42.2799C23.6465 42.2016 24.3534 41.0764 26.6379 41.0764C28.9013 41.0764 29.5644 42.2799 31.5378 42.2345C33.5686 42.2016 34.8482 40.4231 36.0685 38.6027C36.9772 37.3178 37.6765 35.8976 38.1404 34.3949C36.9605 33.8972 35.9536 33.0643 35.2453 31.9998C34.537 30.9354 34.1585 29.6866 34.1571 28.4091Z" fill="white"/>
<path d="M30.4299 17.4018C31.5372 16.0762 32.0827 14.3724 31.9506 12.6522C30.2589 12.8294 28.6962 13.6357 27.574 14.9104C27.0253 15.5331 26.605 16.2576 26.3372 17.0424C26.0695 17.8271 25.9594 18.6569 26.0134 19.4841C26.8596 19.4928 27.6967 19.3099 28.4617 18.9492C29.2267 18.5885 29.8997 18.0594 30.4299 17.4018Z" fill="white"/>
<path d="M58.0811 37.7146H51.6225L50.0714 42.2816H47.3358L53.4533 25.3849H56.2955L62.413 42.2816H59.6307L58.0811 37.7146ZM52.2914 35.6072H57.4109L54.8871 28.1953H54.8165L52.2914 35.6072Z" fill="white"/>
<path d="M75.6247 36.1228C75.6247 39.9509 73.57 42.4105 70.4693 42.4105C69.6838 42.4514 68.9027 42.271 68.2152 41.8898C67.5278 41.5087 66.9619 40.9422 66.5824 40.2552H66.5237V46.3569H63.988V29.9626H66.4425V32.0115H66.4891C66.8861 31.3279 67.4616 30.7643 68.1542 30.3808C68.8469 29.9973 69.6308 29.8082 70.4226 29.8337C73.558 29.8337 75.6247 32.3052 75.6247 36.1228ZM73.0183 36.1228C73.0183 33.6287 71.7258 31.989 69.7537 31.989C67.8163 31.989 66.5131 33.6632 66.5131 36.1228C66.5131 38.6049 67.8163 40.2672 69.7537 40.2672C71.7258 40.2672 73.0183 38.6394 73.0183 36.1228Z" fill="white"/>
<path d="M89.2214 36.1228C89.2214 39.951 87.1667 42.4105 84.066 42.4105C83.2806 42.4515 82.4994 42.2711 81.812 41.8899C81.1246 41.5087 80.5587 40.9422 80.1791 40.2552H80.1205V46.3569H77.5847V29.9626H80.0392V32.0116H80.0858C80.4828 31.3279 81.0582 30.7643 81.7509 30.3808C82.4435 29.9974 83.2275 29.8083 84.0193 29.8338C87.1547 29.8338 89.2214 32.3053 89.2214 36.1228ZM86.6151 36.1228C86.6151 33.6287 85.3226 31.989 83.3505 31.989C81.413 31.989 80.1098 33.6633 80.1098 36.1228C80.1098 38.6049 81.413 40.2672 83.3505 40.2672C85.3226 40.2672 86.6151 38.6395 86.6151 36.1228H86.6151Z" fill="white"/>
<path d="M98.2078 37.5738C98.3957 39.2493 100.028 40.3495 102.259 40.3495C104.396 40.3495 105.934 39.2493 105.934 37.7385C105.934 36.427 105.006 35.6417 102.81 35.1035L100.614 34.576C97.5029 33.8266 96.0585 32.3756 96.0585 30.021C96.0585 27.1057 98.6062 25.1032 102.224 25.1032C105.804 25.1032 108.259 27.1057 108.341 30.021H105.782C105.628 28.3348 104.231 27.3169 102.188 27.3169C100.145 27.3169 98.7474 28.3467 98.7474 29.8456C98.7474 31.0401 99.6402 31.7431 101.824 32.2812L103.691 32.7383C107.167 33.5581 108.612 34.9507 108.612 37.4222C108.612 40.5833 106.087 42.5632 102.071 42.5632C98.313 42.5632 95.776 40.6298 95.6121 37.5736L98.2078 37.5738Z" fill="white"/>
<path d="M114.085 27.0473V29.9626H116.434V31.9651H114.085V38.7564C114.085 39.8114 114.555 40.3031 115.588 40.3031C115.866 40.2982 116.145 40.2787 116.422 40.2446V42.2351C115.957 42.3216 115.486 42.3607 115.013 42.352C112.512 42.352 111.537 41.4152 111.537 39.0261V31.9651H109.741V29.9626H111.537V27.0473H114.085Z" fill="white"/>
<path d="M117.794 36.1228C117.794 32.2468 120.084 29.8112 123.653 29.8112C127.235 29.8112 129.514 32.2467 129.514 36.1228C129.514 40.0094 127.247 42.4344 123.653 42.4344C120.061 42.4344 117.794 40.0094 117.794 36.1228ZM126.93 36.1228C126.93 33.4639 125.708 31.8947 123.653 31.8947C121.599 31.8947 120.378 33.4759 120.378 36.1228C120.378 38.7923 121.599 40.3496 123.653 40.3496C125.708 40.3496 126.93 38.7923 126.93 36.1228H126.93Z" fill="white"/>
<path d="M131.604 29.9626H134.023V32.0594H134.081C134.245 31.4045 134.63 30.8258 135.171 30.4205C135.712 30.0151 136.377 29.8079 137.053 29.8337C137.345 29.8327 137.637 29.8643 137.922 29.928V32.2932C137.553 32.1808 137.168 32.1292 136.782 32.1404C136.414 32.1255 136.047 32.1903 135.706 32.3303C135.365 32.4703 135.058 32.6822 134.807 32.9514C134.556 33.2207 134.367 33.541 134.252 33.8902C134.136 34.2394 134.098 34.6094 134.14 34.9747V42.2816H131.604L131.604 29.9626Z" fill="white"/>
<path d="M149.613 38.6634C149.272 40.8997 147.088 42.4344 144.294 42.4344C140.7 42.4344 138.469 40.0333 138.469 36.1813C138.469 32.3172 140.712 29.8112 144.187 29.8112C147.605 29.8112 149.754 32.1524 149.754 35.8876V36.754H141.029V36.9068C140.989 37.3601 141.046 37.8169 141.196 38.2466C141.346 38.6764 141.587 39.0693 141.901 39.3993C142.215 39.7293 142.596 39.9889 143.019 40.1608C143.442 40.3326 143.896 40.4128 144.352 40.3961C144.951 40.4521 145.553 40.3137 146.067 40.0015C146.581 39.6893 146.98 39.22 147.205 38.6634L149.613 38.6634ZM141.041 34.9867H147.217C147.24 34.5791 147.178 34.1711 147.035 33.7885C146.892 33.4059 146.672 33.0568 146.387 32.7632C146.103 32.4696 145.76 32.2379 145.382 32.0825C145.003 31.927 144.596 31.8513 144.187 31.8601C143.774 31.8577 143.365 31.9368 142.983 32.0929C142.6 32.249 142.253 32.4791 141.961 32.7697C141.668 33.0604 141.436 33.406 141.278 33.7865C141.121 34.167 141.04 34.5749 141.041 34.9867V34.9867Z" fill="white"/>
<path d="M51.9736 12.6669C52.5052 12.6288 53.0387 12.7089 53.5355 12.9014C54.0323 13.0938 54.4801 13.3938 54.8466 13.7797C55.2131 14.1656 55.4891 14.6278 55.6547 15.133C55.8204 15.6382 55.8716 16.1737 55.8045 16.701C55.8045 19.2947 54.3987 20.7857 51.9736 20.7857H49.0328V12.6669H51.9736ZM50.2973 19.6375H51.8323C52.2122 19.6602 52.5924 19.598 52.9451 19.4557C53.2979 19.3134 53.6144 19.0944 53.8716 18.8147C54.1288 18.535 54.3202 18.2016 54.4319 17.8388C54.5436 17.476 54.5728 17.093 54.5173 16.7175C54.5688 16.3436 54.5366 15.9629 54.4232 15.6028C54.3098 15.2427 54.1179 14.912 53.8613 14.6346C53.6047 14.3571 53.2897 14.1396 52.9389 13.9978C52.5882 13.856 52.2103 13.7933 51.8323 13.8142H50.2973V19.6375Z" fill="white"/>
<path d="M57.2329 17.7194C57.1943 17.3168 57.2405 16.9105 57.3686 16.5267C57.4966 16.1429 57.7037 15.79 57.9765 15.4907C58.2493 15.1914 58.5818 14.9523 58.9528 14.7886C59.3237 14.6249 59.7248 14.5404 60.1305 14.5404C60.5361 14.5404 60.9372 14.6249 61.3082 14.7886C61.6791 14.9523 62.0116 15.1914 62.2844 15.4907C62.5573 15.79 62.7643 16.1429 62.8924 16.5267C63.0204 16.9105 63.0666 17.3168 63.028 17.7194C63.0673 18.1225 63.0217 18.5293 62.894 18.9137C62.7663 19.2981 62.5593 19.6516 62.2865 19.9516C62.0136 20.2515 61.6808 20.4911 61.3095 20.6551C60.9382 20.8191 60.5366 20.9039 60.1305 20.9039C59.7244 20.9039 59.3228 20.8191 58.9514 20.6551C58.5801 20.4911 58.2474 20.2515 57.9745 19.9516C57.7016 19.6516 57.4946 19.2981 57.3669 18.9137C57.2392 18.5293 57.1936 18.1225 57.2329 17.7194ZM61.7808 17.7194C61.7808 16.3913 61.1825 15.6147 60.1325 15.6147C59.0785 15.6147 58.4855 16.3913 58.4855 17.7194C58.4855 19.0582 59.0785 19.8288 60.1325 19.8288C61.1825 19.8288 61.7808 19.0528 61.7808 17.7194H61.7808Z" fill="white"/>
<path d="M70.7311 20.7855H69.4733L68.2034 16.273H68.1075L66.8429 20.7855H65.597L63.9034 14.6586H65.1333L66.234 19.3338H66.3246L67.5878 14.6586H68.7511L70.0143 19.3338H70.1102L71.2055 14.6586H72.4181L70.7311 20.7855Z" fill="white"/>
<path d="M73.8425 14.6585H75.0098V15.6319H75.1004C75.2541 15.2823 75.5134 14.9892 75.842 14.7936C76.1707 14.5979 76.5524 14.5093 76.9339 14.5403C77.2329 14.5179 77.5331 14.5628 77.8122 14.6718C78.0914 14.7808 78.3424 14.951 78.5466 15.1699C78.7509 15.3887 78.9031 15.6506 78.9921 15.9361C79.0811 16.2216 79.1045 16.5234 79.0606 16.8191V20.7854H77.848V17.1227C77.848 16.1381 77.419 15.6485 76.5222 15.6485C76.3192 15.639 76.1166 15.6735 75.9282 15.7495C75.7398 15.8254 75.5702 15.9411 75.4308 16.0886C75.2915 16.2361 75.1857 16.4118 75.1209 16.6039C75.056 16.7959 75.0336 16.9996 75.0551 17.2011V20.7855H73.8425L73.8425 14.6585Z" fill="white"/>
<path d="M80.9927 12.2668H82.2053V20.7855H80.9927V12.2668Z" fill="white"/>
<path d="M83.8908 17.7193C83.8522 17.3167 83.8984 16.9104 84.0265 16.5266C84.1546 16.1428 84.3617 15.7899 84.6345 15.4906C84.9074 15.1912 85.2399 14.9521 85.6109 14.7884C85.9819 14.6248 86.383 14.5402 86.7887 14.5402C87.1943 14.5402 87.5955 14.6248 87.9664 14.7884C88.3374 14.9521 88.6699 15.1912 88.9428 15.4906C89.2156 15.7899 89.4227 16.1428 89.5508 16.5266C89.6789 16.9104 89.7251 17.3167 89.6865 17.7193C89.7258 18.1224 89.6801 18.5292 89.5524 18.9137C89.4246 19.2981 89.2177 19.6516 88.9447 19.9515C88.6718 20.2514 88.339 20.491 87.9677 20.655C87.5964 20.819 87.1948 20.9038 86.7887 20.9038C86.3825 20.9038 85.9809 20.819 85.6096 20.655C85.2383 20.491 84.9055 20.2514 84.6326 19.9515C84.3596 19.6516 84.1527 19.2981 84.0249 18.9137C83.8972 18.5292 83.8515 18.1224 83.8908 17.7193ZM88.4386 17.7193C88.4386 16.3912 87.8403 15.6146 86.7903 15.6146C85.7363 15.6146 85.1434 16.3912 85.1434 17.7194C85.1434 19.0581 85.7364 19.8288 86.7903 19.8288C87.8403 19.8288 88.4386 19.0528 88.4386 17.7193H88.4386Z" fill="white"/>
<path d="M90.9631 19.0528C90.9631 17.9499 91.7866 17.3141 93.2484 17.2238L94.9127 17.1281V16.5993C94.9127 15.9521 94.4836 15.5867 93.6548 15.5867C92.9779 15.5867 92.5088 15.8346 92.3743 16.2677H91.2003C91.3242 15.2154 92.317 14.5403 93.7107 14.5403C95.2511 14.5403 96.1199 15.305 96.1199 16.5993V20.7855H94.9526V19.9245H94.8567C94.662 20.2334 94.3885 20.4851 94.0643 20.6542C93.7401 20.8232 93.3767 20.9033 93.0112 20.8865C92.7533 20.9132 92.4926 20.8858 92.2459 20.8059C91.9993 20.7261 91.7721 20.5955 91.5792 20.4228C91.3862 20.25 91.2317 20.0389 91.1256 19.8029C91.0195 19.5669 90.9642 19.3114 90.9631 19.0528ZM94.9127 18.5293V18.0171L93.4123 18.1127C92.5661 18.1692 92.1824 18.4562 92.1824 18.9963C92.1824 19.5478 92.6621 19.8687 93.3217 19.8687C93.515 19.8882 93.7102 19.8687 93.8958 19.8115C94.0814 19.7542 94.2535 19.6603 94.4019 19.5353C94.5504 19.4103 94.6721 19.2569 94.7598 19.0841C94.8475 18.9112 94.8995 18.7226 94.9127 18.5293Z" fill="white"/>
<path d="M97.7135 17.7194C97.7135 15.7834 98.7115 14.5569 100.264 14.5569C100.648 14.5393 101.029 14.631 101.363 14.8214C101.696 15.0117 101.969 15.2928 102.148 15.6319H102.239V12.2668H103.451V20.7855H102.289V19.8175H102.193C102 20.1542 101.718 20.4319 101.378 20.6203C101.038 20.8087 100.653 20.9008 100.264 20.8865C98.7009 20.8865 97.7135 19.6601 97.7135 17.7194ZM98.9661 17.7194C98.9661 19.0189 99.5804 19.8009 100.608 19.8009C101.63 19.8009 102.261 19.0077 102.261 17.7247C102.261 16.4478 101.623 15.6432 100.608 15.6432C99.587 15.6432 98.966 16.4305 98.966 17.7194H98.9661Z" fill="white"/>
<path d="M108.468 17.7194C108.429 17.3168 108.476 16.9105 108.604 16.5267C108.732 16.1429 108.939 15.79 109.212 15.4907C109.484 15.1914 109.817 14.9523 110.188 14.7886C110.559 14.6249 110.96 14.5404 111.366 14.5404C111.771 14.5404 112.172 14.6249 112.543 14.7886C112.914 14.9523 113.247 15.1914 113.52 15.4907C113.792 15.79 113.999 16.1429 114.127 16.5267C114.256 16.9105 114.302 17.3168 114.263 17.7194C114.302 18.1225 114.257 18.5293 114.129 18.9137C114.001 19.2981 113.794 19.6516 113.522 19.9516C113.249 20.2515 112.916 20.4911 112.545 20.6551C112.173 20.8191 111.772 20.9039 111.366 20.9039C110.959 20.9039 110.558 20.8191 110.187 20.6551C109.815 20.4911 109.482 20.2515 109.21 19.9516C108.937 19.6516 108.73 19.2981 108.602 18.9137C108.474 18.5293 108.429 18.1225 108.468 17.7194ZM113.016 17.7194C113.016 16.3913 112.418 15.6147 111.368 15.6147C110.314 15.6147 109.721 16.3913 109.721 17.7194C109.721 19.0582 110.314 19.8288 111.368 19.8288C112.418 19.8288 113.016 19.0528 113.016 17.7194Z" fill="white"/>
<path d="M115.89 14.6585H117.057V15.6319H117.148C117.302 15.2823 117.561 14.9892 117.89 14.7936C118.218 14.5979 118.6 14.5093 118.982 14.5403C119.28 14.5179 119.581 14.5628 119.86 14.6718C120.139 14.7808 120.39 14.951 120.594 15.1699C120.798 15.3887 120.951 15.6506 121.04 15.9361C121.129 16.2216 121.152 16.5234 121.108 16.8191V20.7854H119.896V17.1227C119.896 16.1381 119.467 15.6485 118.57 15.6485C118.367 15.639 118.164 15.6735 117.976 15.7495C117.787 15.8254 117.618 15.9411 117.478 16.0886C117.339 16.2361 117.233 16.4118 117.169 16.6039C117.104 16.7959 117.081 16.9996 117.103 17.2011V20.7855H115.89V14.6585Z" fill="white"/>
<path d="M127.96 13.1332V14.6865H129.291V15.705H127.96V18.8555C127.96 19.4973 128.225 19.7783 128.829 19.7783C128.983 19.7778 129.138 19.7685 129.291 19.7504V20.7576C129.073 20.7965 128.853 20.8171 128.631 20.8194C127.283 20.8194 126.746 20.3464 126.746 19.1651V15.705H125.771V14.6864H126.746V13.1332H127.96Z" fill="white"/>
<path d="M130.947 12.2668H132.149V15.6432H132.245C132.406 15.2903 132.673 14.9956 133.008 14.7992C133.343 14.6028 133.731 14.5143 134.119 14.5456C134.416 14.5295 134.713 14.579 134.989 14.6906C135.265 14.8023 135.513 14.9733 135.715 15.1914C135.917 15.4096 136.069 15.6695 136.159 15.9527C136.248 16.2359 136.274 16.5354 136.235 16.8298V20.7855H135.021V17.1281C135.021 16.1494 134.564 15.6538 133.707 15.6538C133.499 15.6368 133.289 15.6653 133.093 15.7375C132.897 15.8097 132.719 15.9238 132.571 16.0717C132.424 16.2197 132.311 16.3979 132.24 16.5941C132.169 16.7902 132.141 16.9994 132.16 17.2071V20.7855H130.947L130.947 12.2668Z" fill="white"/>
<path d="M143.305 19.1312C143.14 19.6912 142.783 20.1755 142.297 20.4996C141.81 20.8236 141.224 20.9667 140.643 20.9038C140.238 20.9144 139.835 20.8371 139.464 20.6772C139.092 20.5173 138.759 20.2786 138.489 19.9777C138.219 19.6768 138.018 19.3209 137.9 18.9347C137.782 18.5486 137.749 18.1413 137.804 17.7413C137.75 17.3401 137.784 16.932 137.902 16.5446C138.02 16.1573 138.22 15.7998 138.488 15.4962C138.757 15.1927 139.088 14.9503 139.459 14.7854C139.829 14.6204 140.231 14.5369 140.637 14.5403C142.347 14.5403 143.378 15.705 143.378 17.629V18.0509H139.04V18.1187C139.021 18.3435 139.049 18.5699 139.123 18.7831C139.197 18.9964 139.314 19.192 139.468 19.3572C139.622 19.5225 139.809 19.6538 140.017 19.7428C140.225 19.8318 140.45 19.8765 140.676 19.8739C140.966 19.9087 141.26 19.8566 141.52 19.7243C141.78 19.5921 141.995 19.3856 142.138 19.1312L143.305 19.1312ZM139.04 17.1567H142.143C142.158 16.951 142.13 16.7445 142.061 16.5503C141.991 16.3561 141.882 16.1786 141.739 16.0291C141.597 15.8796 141.425 15.7615 141.234 15.6823C141.043 15.6032 140.837 15.5647 140.631 15.5695C140.421 15.5668 140.213 15.6061 140.018 15.6849C139.824 15.7638 139.648 15.8806 139.499 16.0285C139.351 16.1764 139.234 16.3525 139.155 16.5462C139.076 16.74 139.037 16.9475 139.04 17.1567H139.04Z" fill="white"/>
</svg>
