<svg width="184" height="56" viewBox="0 0 184 56" fill="none" xmlns="http://www.w3.org/2000/svg">
<g id="Badge" clip-path="url(#clip0_7389_200481)">
<path id="Vector" d="M177.197 0.786865H7.11456C3.35721 0.786865 0.311279 3.8328 0.311279 7.59015V48.4099C0.311279 52.1672 3.35721 55.2131 7.11456 55.2131H177.197C180.954 55.2131 184 52.1672 184 48.4099V7.59015C184 3.8328 180.954 0.786865 177.197 0.786865Z" fill="black"/>
<path id="Vector_2" d="M177.197 1.87539C178.712 1.87539 180.166 2.47748 181.238 3.5492C182.309 4.62093 182.911 6.0745 182.911 7.59015V48.4099C182.911 49.9255 182.309 51.3791 181.238 52.4508C180.166 53.5225 178.712 54.1246 177.197 54.1246H7.11456C5.59892 54.1246 4.14534 53.5225 3.07362 52.4508C2.00189 51.3791 1.3998 49.9255 1.3998 48.4099V7.59015C1.3998 6.0745 2.00189 4.62093 3.07362 3.5492C4.14534 2.47748 5.59892 1.87539 7.11456 1.87539H177.197ZM177.197 0.786865H7.11456C5.31022 0.786865 3.57978 1.50364 2.30391 2.7795C1.02805 4.05536 0.311279 5.78581 0.311279 7.59015V48.4099C0.311279 50.2142 1.02805 51.9446 2.30391 53.2205C3.57978 54.4964 5.31022 55.2131 7.11456 55.2131H177.197C179.001 55.2131 180.731 54.4964 182.007 53.2205C183.283 51.9446 184 50.2142 184 48.4099V7.59015C184 5.78581 183.283 4.05536 182.007 2.7795C180.731 1.50364 179.001 0.786865 177.197 0.786865Z" fill="#A6A6A6"/>
<path id="Vector_3" d="M64.8336 14.72C64.8559 15.219 64.777 15.7173 64.6016 16.185C64.4262 16.6527 64.158 17.08 63.8131 17.4413C63.4265 17.8404 62.9601 18.1533 62.4442 18.3597C61.9284 18.566 61.3748 18.6611 60.8196 18.6387C60.2613 18.6511 59.7063 18.5489 59.1891 18.3382C58.6719 18.1276 58.2034 17.813 57.8126 17.4141C57.0197 16.6031 56.5758 15.514 56.5758 14.3798C56.5758 13.2457 57.0197 12.1565 57.8126 11.3456C58.4187 10.7532 59.1865 10.3533 60.0192 10.1959C60.852 10.0386 61.7127 10.1308 62.4932 10.4611C62.9839 10.6628 63.4215 10.9748 63.7722 11.3728L63.0511 12.0939C62.7809 11.7684 62.4385 11.5104 62.0512 11.3403C61.6638 11.1703 61.2421 11.0929 60.8196 11.1142C60.2863 11.1179 59.762 11.2522 59.2925 11.5053C58.823 11.7584 58.4227 12.1227 58.1265 12.5662C57.8303 13.0098 57.6472 13.5191 57.5934 14.0498C57.5395 14.5804 57.6164 15.1162 57.8173 15.6102C58.0183 16.1042 58.3372 16.5416 58.7462 16.8839C59.1552 17.2262 59.6418 17.4632 60.1635 17.574C60.6853 17.6849 61.2262 17.6662 61.739 17.5198C62.2519 17.3733 62.7211 17.1034 63.1055 16.7338C63.5211 16.2781 63.7621 15.69 63.7859 15.0738H60.8196V14.0941H64.7791C64.8101 14.3014 64.8283 14.5104 64.8336 14.72Z" fill="white" stroke="white" stroke-width="0.257436" stroke-miterlimit="10"/>
<path id="Vector_4" d="M71.0654 11.3183H67.3916V13.9036H70.7389V14.8833H67.3916V17.4685H71.0654V18.4754H66.3303V10.3115H71.0654V11.3183Z" fill="white" stroke="white" stroke-width="0.257436" stroke-miterlimit="10"/>
<path id="Vector_5" d="M75.5284 18.4754H74.4807V11.3183H72.1948V10.3115H77.8688V11.3183H75.5284V18.4754Z" fill="white" stroke="white" stroke-width="0.257436" stroke-miterlimit="10"/>
<path id="Vector_6" d="M81.8691 18.4754V10.3115H82.9168V18.4754H81.8691Z" fill="white" stroke="white" stroke-width="0.257436" stroke-miterlimit="10"/>
<path id="Vector_7" d="M87.5702 18.4754H86.5225V11.3183H84.2366V10.3115H89.8425V11.3183H87.5702V18.4754Z" fill="white" stroke="white" stroke-width="0.257436" stroke-miterlimit="10"/>
<path id="Vector_8" d="M100.469 17.4141C100.076 17.8074 99.6095 18.1194 99.0959 18.3323C98.5823 18.5452 98.0317 18.6548 97.4757 18.6548C96.9197 18.6548 96.3692 18.5452 95.8556 18.3323C95.3419 18.1194 94.8753 17.8074 94.4823 17.4141C93.7131 16.5964 93.2848 15.5161 93.2848 14.3935C93.2848 13.2708 93.7131 12.1905 94.4823 11.3728C94.8668 10.9684 95.3319 10.6492 95.8476 10.436C96.3632 10.2227 96.9179 10.12 97.4757 10.1346C98.0328 10.1258 98.5857 10.2311 99.1005 10.444C99.6153 10.657 100.081 10.9731 100.469 11.3728C100.86 11.7708 101.168 12.2431 101.374 12.7619C101.579 13.2807 101.679 13.8355 101.667 14.3935C101.684 14.9521 101.587 15.5085 101.381 16.0281C101.175 16.5477 100.865 17.0194 100.469 17.4141ZM95.2579 16.7338C95.5477 17.0275 95.893 17.2608 96.2738 17.4199C96.6545 17.5791 97.0631 17.6611 97.4757 17.6611C97.8884 17.6611 98.297 17.5791 98.6777 17.4199C99.0584 17.2608 99.4037 17.0275 99.6936 16.7338C100.281 16.0958 100.607 15.2605 100.607 14.3935C100.607 13.5264 100.281 12.6911 99.6936 12.0531C99.4037 11.7594 99.0584 11.5262 98.6777 11.367C98.297 11.2078 97.8884 11.1258 97.4757 11.1258C97.0631 11.1258 96.6545 11.2078 96.2738 11.367C95.893 11.5262 95.5477 11.7594 95.2579 12.0531C94.6707 12.6911 94.3449 13.5264 94.3449 14.3935C94.3449 15.2605 94.6707 16.0958 95.2579 16.7338Z" fill="white" stroke="white" stroke-width="0.257436" stroke-miterlimit="10"/>
<path id="Vector_9" d="M103.15 18.4754V10.3115H104.415L108.388 16.6657V15.0874V10.3115H109.436V18.4754H108.347L104.197 11.8218V13.3865V18.4754H103.15Z" fill="white" stroke="white" stroke-width="0.257436" stroke-miterlimit="10"/>
<path id="Vector_10" d="M93.0264 30.3811C91.88 30.3838 90.7601 30.7264 89.8084 31.3656C88.8567 32.0047 88.1159 32.9117 87.6796 33.9719C87.2434 35.0321 87.1314 36.1978 87.3577 37.3217C87.584 38.4455 88.1384 39.4771 88.951 40.2858C89.7635 41.0945 90.7976 41.6442 91.9225 41.8652C93.0475 42.0862 94.2126 41.9687 95.2708 41.5275C96.3289 41.0863 97.2324 40.3412 97.8671 39.3865C98.5018 38.4318 98.8391 37.3103 98.8364 36.1639C98.8475 35.3992 98.7046 34.64 98.4162 33.9316C98.1278 33.2232 97.6998 32.58 97.1577 32.0405C96.6156 31.5009 95.9705 31.0759 95.2607 30.7909C94.551 30.5058 93.7911 30.3665 93.0264 30.3811ZM93.0264 39.6744C92.3237 39.7236 91.6225 39.5602 91.0139 39.2055C90.4053 38.8509 89.9175 38.3213 89.6139 37.6857C89.3103 37.0502 89.2048 36.3379 89.3114 35.6416C89.4179 34.9454 89.7314 34.2972 90.2112 33.7815C90.6909 33.2657 91.3147 32.9062 92.0015 32.7497C92.6883 32.5932 93.4063 32.647 94.0621 32.9039C94.7179 33.1609 95.2813 33.6092 95.679 34.1906C96.0767 34.772 96.2903 35.4595 96.292 36.1639C96.3139 36.6102 96.2462 37.0564 96.0929 37.4762C95.9397 37.8959 95.7039 38.2807 95.3996 38.6079C95.0952 38.9351 94.7284 39.198 94.3208 39.3812C93.9133 39.5644 93.4731 39.6641 93.0264 39.6744ZM80.3451 30.3811C79.1987 30.3838 78.0788 30.7264 77.1271 31.3656C76.1754 32.0047 75.4345 32.9117 74.9983 33.9719C74.5621 35.0321 74.4501 36.1978 74.6763 37.3217C74.9026 38.4455 75.4571 39.4771 76.2696 40.2858C77.0822 41.0945 78.1163 41.6442 79.2412 41.8652C80.3661 42.0862 81.5313 41.9687 82.5894 41.5275C83.6476 41.0863 84.5511 40.3412 85.1858 39.3865C85.8204 38.4318 86.1578 37.3103 86.1551 36.1639C86.1662 35.3992 86.0233 34.64 85.7349 33.9316C85.4465 33.2232 85.0185 32.58 84.4764 32.0405C83.9343 31.5009 83.2891 31.0759 82.5794 30.7909C81.8696 30.5058 81.1098 30.3665 80.3451 30.3811ZM80.3451 39.6744C79.6424 39.7236 78.9412 39.5602 78.3326 39.2055C77.724 38.8509 77.2362 38.3213 76.9326 37.6857C76.6289 37.0502 76.5235 36.3379 76.63 35.6416C76.7366 34.9454 77.0501 34.2972 77.5298 33.7815C78.0096 33.2657 78.6334 32.9062 79.3202 32.7497C80.007 32.5932 80.7249 32.647 81.3808 32.9039C82.0366 33.1609 82.6 33.6092 82.9977 34.1906C83.3954 34.772 83.6089 35.4595 83.6106 36.1639C83.6326 36.6102 83.5649 37.0564 83.4116 37.4762C83.2584 37.8959 83.0226 38.2807 82.7182 38.6079C82.4139 38.9351 82.0471 39.198 81.6395 39.3812C81.2319 39.5644 80.7918 39.6641 80.3451 39.6744ZM65.269 32.1636V34.6128H71.147C71.0549 35.7664 70.5753 36.8549 69.7864 37.7015C69.1967 38.3022 68.4876 38.7725 67.7047 39.0819C66.9219 39.3913 66.0828 39.5329 65.2418 39.4975C63.5096 39.4975 61.8484 38.8094 60.6236 37.5846C59.3987 36.3598 58.7106 34.6986 58.7106 32.9664C58.7106 31.2342 59.3987 29.573 60.6236 28.3482C61.8484 27.1233 63.5096 26.4352 65.2418 26.4352C66.9024 26.4105 68.5059 27.0412 69.7047 28.1905L71.4328 26.4624C70.6218 25.6604 69.6589 25.0282 68.6005 24.6029C67.5421 24.1777 66.4095 23.968 65.269 23.9861C64.0594 23.939 62.8527 24.1366 61.7212 24.567C60.5898 24.9974 59.5569 25.6519 58.6844 26.491C57.812 27.3302 57.1179 28.3369 56.6438 29.4507C56.1697 30.5646 55.9253 31.7626 55.9253 32.9732C55.9253 34.1837 56.1697 35.3818 56.6438 36.4957C57.1179 37.6095 57.812 38.6162 58.6844 39.4553C59.5569 40.2945 60.5898 40.9489 61.7212 41.3794C62.8527 41.8098 64.0594 42.0074 65.269 41.9603C66.4329 42.0068 67.5935 41.8066 68.6746 41.3727C69.7556 40.9389 70.7327 40.2813 71.5416 39.4431C72.9705 37.8735 73.7318 35.809 73.6642 33.6875C73.6691 33.1769 73.6281 32.6669 73.5418 32.1636H65.269ZM126.92 34.0685C126.565 33.0245 125.902 32.113 125.017 31.4545C124.133 30.796 123.069 30.4217 121.968 30.3811C121.223 30.3797 120.487 30.5309 119.803 30.8254C119.12 31.12 118.504 31.5516 117.994 32.0936C117.483 32.6356 117.09 33.2764 116.837 33.9765C116.585 34.6766 116.478 35.4211 116.525 36.1639C116.513 37.406 116.904 38.6185 117.638 39.6204C118.372 40.6222 119.411 41.3596 120.599 41.7224C121.787 42.0852 123.061 42.054 124.229 41.6334C125.398 41.2127 126.399 40.4253 127.084 39.3887L125.111 38.028C124.817 38.5182 124.399 38.9231 123.901 39.2023C123.402 39.4816 122.839 39.6256 122.267 39.62C121.677 39.6443 121.094 39.4897 120.594 39.1765C120.093 38.8632 119.7 38.4059 119.464 37.8647L127.206 34.6672L126.92 34.0685ZM119.029 36.0007C119.001 35.578 119.058 35.1541 119.196 34.7538C119.335 34.3534 119.551 33.9847 119.834 33.6692C120.116 33.3537 120.459 33.0977 120.842 32.9163C121.225 32.7349 121.64 32.6316 122.063 32.6126C122.501 32.5859 122.938 32.6891 123.318 32.9093C123.698 33.1296 124.004 33.4571 124.199 33.8508L119.029 36.0007ZM112.742 41.6066H115.287V24.5983H112.742V41.6066ZM108.579 31.6738H108.483C108.103 31.2409 107.634 30.8952 107.108 30.6604C106.582 30.4255 106.012 30.3071 105.436 30.3131C103.949 30.3852 102.546 31.0267 101.52 32.1045C100.493 33.1824 99.9199 34.614 99.9199 36.1027C99.9199 37.5914 100.493 39.023 101.52 40.1009C102.546 41.1787 103.949 41.8202 105.436 41.8923C106.012 41.9039 106.585 41.7879 107.112 41.5527C107.638 41.3175 108.107 40.9688 108.483 40.5316H108.579V41.3616C108.579 43.5795 107.395 44.7633 105.49 44.7633C104.854 44.7493 104.236 44.5465 103.715 44.1807C103.194 43.8149 102.794 43.3025 102.565 42.7087L100.36 43.6203C100.768 44.6439 101.476 45.5197 102.392 46.1319C103.308 46.7441 104.388 47.064 105.49 47.0492C108.47 47.0492 110.933 45.2939 110.933 41.0215V30.7213H108.579V31.6738ZM105.653 39.6744C104.762 39.6188 103.925 39.2255 103.313 38.5746C102.702 37.9236 102.361 37.064 102.361 36.1707C102.361 35.2775 102.702 34.4179 103.313 33.7669C103.925 33.116 104.762 32.7226 105.653 32.667C106.089 32.6858 106.517 32.7921 106.91 32.9795C107.304 33.1669 107.656 33.4316 107.946 33.7578C108.235 34.0841 108.456 34.4652 108.595 34.8786C108.734 35.2919 108.789 35.7291 108.756 36.1639C108.793 36.6003 108.741 37.0396 108.603 37.4554C108.466 37.8712 108.245 38.2547 107.955 38.5829C107.665 38.911 107.312 39.177 106.916 39.3646C106.521 39.5522 106.091 39.6576 105.653 39.6744ZM138.84 24.5983H132.744V41.6066H135.288V35.157H138.84C139.565 35.2091 140.293 35.1113 140.979 34.8696C141.664 34.6279 142.293 34.2475 142.825 33.7522C143.357 33.2568 143.782 32.6572 144.072 31.9906C144.362 31.324 144.512 30.6047 144.512 29.8777C144.512 29.1507 144.362 28.4314 144.072 27.7648C143.782 27.0982 143.357 26.4986 142.825 26.0032C142.293 25.5079 141.664 25.1275 140.979 24.8858C140.293 24.6441 139.565 24.5463 138.84 24.5983ZM138.84 32.7623H135.288V26.9659H138.894C139.277 26.9659 139.655 27.0412 140.008 27.1875C140.362 27.3339 140.683 27.5484 140.953 27.8187C141.223 28.0891 141.438 28.4101 141.584 28.7634C141.731 29.1167 141.806 29.4953 141.806 29.8777C141.806 30.2601 141.731 30.6387 141.584 30.992C141.438 31.3453 141.223 31.6663 140.953 31.9367C140.683 32.207 140.362 32.4215 140.008 32.5679C139.655 32.7142 139.277 32.7895 138.894 32.7895L138.84 32.7623ZM154.542 30.3267C153.615 30.2696 152.692 30.4853 151.887 30.9472C151.081 31.4091 150.429 32.0969 150.011 32.9256L152.256 33.8644C152.483 33.4554 152.823 33.1208 153.236 32.9011C153.649 32.6814 154.117 32.5859 154.582 32.6262C154.906 32.5885 155.233 32.6155 155.545 32.7056C155.858 32.7957 156.149 32.9471 156.402 33.151C156.656 33.355 156.866 33.6073 157.021 33.8933C157.175 34.1793 157.272 34.4933 157.304 34.8169V34.9802C156.486 34.5501 155.575 34.3259 154.651 34.327C152.229 34.327 149.752 35.6877 149.752 38.1641C149.776 38.6905 149.906 39.2066 150.133 39.682C150.36 40.1573 150.681 40.5821 151.076 40.9311C151.47 41.2802 151.931 41.5463 152.431 41.7138C152.93 41.8812 153.458 41.9466 153.984 41.9059C154.622 41.9412 155.259 41.8061 155.828 41.5144C156.397 41.2227 156.878 40.7849 157.222 40.2459H157.304V41.6066H159.753V35.0618C159.753 32.082 157.494 30.3539 154.596 30.3539L154.542 30.3267ZM154.229 39.6472C153.399 39.6472 152.242 39.2254 152.242 38.2049C152.242 36.8443 153.684 36.3816 154.963 36.3816C155.772 36.3617 156.571 36.559 157.277 36.9531C157.191 37.692 156.841 38.375 156.29 38.8753C155.74 39.3757 155.027 39.6596 154.283 39.6744L154.229 39.6472ZM168.679 30.7213L165.767 38.0961H165.685L162.665 30.7213H159.943L164.474 41.0351L161.889 46.7634H164.543L171.509 30.7213H168.679ZM145.82 41.6066H148.351V24.5983H145.82V41.6066Z" fill="white"/>
<path id="Vector_11" d="M14.5165 11.0462C14.0681 11.5764 13.8393 12.2579 13.8769 12.9512V43.0489C13.8306 43.7433 14.0605 44.428 14.5165 44.9538L14.6117 45.0627L31.4702 28.2041V27.7959L14.6117 10.951L14.5165 11.0462Z" fill="url(#paint0_linear_7389_200481)"/>
<path id="Vector_12" d="M37.0489 33.8236L31.4702 28.204V27.7958L37.0489 22.1763L37.1714 22.258L43.8522 26.0406C45.7571 27.1155 45.7571 28.8844 43.8522 29.9729L37.1986 33.7555L37.0489 33.8236Z" fill="url(#paint1_linear_7389_200481)"/>
<path id="Vector_13" d="M37.2122 33.742L31.4703 28L14.5165 44.9538C14.901 45.296 15.3931 45.4929 15.9075 45.5103C16.422 45.5277 16.9263 45.3645 17.333 45.049L37.2122 33.742Z" fill="url(#paint2_linear_7389_200481)"/>
<path id="Vector_14" d="M37.2122 22.2581L17.333 10.9646C16.929 10.6447 16.425 10.4776 15.9099 10.4925C15.3947 10.5074 14.9014 10.7035 14.5165 11.0462L31.4703 28L37.2122 22.2581Z" fill="url(#paint3_linear_7389_200481)"/>
<path id="Vector_15" opacity="0.2" d="M37.049 33.6195L17.333 44.8449C16.9411 45.1407 16.4634 45.3008 15.9724 45.3008C15.4813 45.3008 15.0037 45.1407 14.6117 44.8449L14.5165 44.9402L14.6117 45.049C15.0037 45.3448 15.4813 45.5049 15.9724 45.5049C16.4634 45.5049 16.9411 45.3448 17.333 45.049L37.2122 33.742L37.049 33.6195Z" fill="black"/>
<path id="Vector_16" opacity="0.12" d="M14.5167 44.7633C14.0796 44.2236 13.8654 43.5373 13.918 42.8448V43.0489C13.8717 43.7433 14.1015 44.428 14.5575 44.9538L14.6527 44.8586L14.5167 44.7633Z" fill="black"/>
<path id="Vector_17" opacity="0.12" d="M43.8524 29.7689L37.0491 33.6195L37.1715 33.742L43.8524 29.9593C44.2467 29.7926 44.5888 29.5226 44.8426 29.1778C45.0965 28.833 45.2526 28.4261 45.2947 28C45.2096 28.3872 45.0347 28.749 44.7842 29.0562C44.5337 29.3635 44.2145 29.6076 43.8524 29.7689Z" fill="black"/>
<path id="Vector_18" opacity="0.25" d="M17.333 11.1551L43.8522 26.2312C44.2144 26.3924 44.5336 26.6365 44.7841 26.9438C45.0346 27.251 45.2095 27.6128 45.2945 28C45.2525 27.5739 45.0963 27.1671 44.8425 26.8222C44.5887 26.4774 44.2466 26.2074 43.8522 26.0407L17.333 10.9646C15.4417 9.87607 13.877 10.7741 13.877 12.9512V13.1553C13.9178 10.9782 15.4417 10.0802 17.333 11.1551Z" fill="white"/>
</g>
<defs>
<linearGradient id="paint0_linear_7389_200481" x1="29.9735" y1="12.6382" x2="7.1417" y2="35.47" gradientUnits="userSpaceOnUse">
<stop stop-color="#00A0FF"/>
<stop offset="0.01" stop-color="#00A1FF"/>
<stop offset="0.26" stop-color="#00BEFF"/>
<stop offset="0.51" stop-color="#00D2FF"/>
<stop offset="0.76" stop-color="#00DFFF"/>
<stop offset="1" stop-color="#00E3FF"/>
</linearGradient>
<linearGradient id="paint1_linear_7389_200481" x1="46.3422" y1="27.9999" x2="13.4279" y2="27.9999" gradientUnits="userSpaceOnUse">
<stop stop-color="#FFE000"/>
<stop offset="0.41" stop-color="#FFBD00"/>
<stop offset="0.78" stop-color="#FFA500"/>
<stop offset="1" stop-color="#FF9C00"/>
</linearGradient>
<linearGradient id="paint2_linear_7389_200481" x1="34.0963" y1="31.1295" x2="3.12778" y2="62.0844" gradientUnits="userSpaceOnUse">
<stop stop-color="#FF3A44"/>
<stop offset="1" stop-color="#C31162"/>
</linearGradient>
<linearGradient id="paint3_linear_7389_200481" x1="10.244" y1="1.03181" x2="24.0683" y2="14.8561" gradientUnits="userSpaceOnUse">
<stop stop-color="#32A071"/>
<stop offset="0.07" stop-color="#2DA771"/>
<stop offset="0.48" stop-color="#15CF74"/>
<stop offset="0.8" stop-color="#06E775"/>
<stop offset="1" stop-color="#00F076"/>
</linearGradient>
<clipPath id="clip0_7389_200481">
<rect width="183.689" height="54.4263" fill="white" transform="translate(0.311279 0.786865)"/>
</clipPath>
</defs>
</svg>
